<?xml version="1.0" encoding="iso-8859-1"?>
<!-- Generator: Adobe Illustrator 19.0.0, SVG Export Plug-In . SVG Version: 6.00 Build 0)  -->
<svg version="1.1" id="Layer_1" xmlns="http://www.w3.org/2000/svg" xmlns:xlink="http://www.w3.org/1999/xlink" x="0px" y="0px"
	 viewBox="0 0 512.001 512.001" style="enable-background:new 0 0 512.001 512.001;" xml:space="preserve">
<g>
	<rect x="237.495" y="117.205" style="fill:#EBE4DD;" width="37.012" height="74.024"/>
	<polygon style="fill:#EBE4DD;" points="194.314,191.229 194.314,18.506 46.266,18.506 46.266,512 465.736,512 465.736,18.506 
		317.687,18.506 317.687,191.229 317.687,191.229 	"/>
</g>
<g>
	<polygon style="fill:#D8CCBC;" points="465.736,18.506 317.687,18.506 317.687,191.229 256.001,191.229 256.001,512 465.736,512 	
		"/>
	<rect x="9.254" style="fill:#D8CCBC;" width="222.072" height="37.012"/>
</g>
<rect x="280.675" y="0" style="fill:#BFA993;" width="222.072" height="37.012"/>
<path style="fill:#88888F;" d="M256.001,357.783c-30.613,0-55.518-24.905-55.518-55.518s24.905-55.518,55.518-55.518
	c30.614,0,55.518,24.905,55.518,55.518S286.615,357.783,256.001,357.783z"/>
<g>
	<rect x="101.784" y="67.855" style="fill:#454449;" width="37.012" height="74.024"/>
	<rect x="373.205" y="67.855" style="fill:#454449;" width="37.012" height="74.024"/>
	<rect x="101.784" y="240.578" style="fill:#454449;" width="37.012" height="74.024"/>
	<rect x="373.205" y="240.578" style="fill:#454449;" width="37.012" height="74.024"/>
</g>
<rect x="9.254" y="172.723" style="fill:#D8CCBC;" width="493.494" height="37.012"/>
<rect x="256.001" y="172.723" style="fill:#BFA993;" width="246.747" height="37.012"/>
<rect x="9.254" y="345.446" style="fill:#D8CCBC;" width="160.386" height="37.012"/>
<rect x="342.362" y="345.446" style="fill:#BFA993;" width="160.386" height="37.012"/>
<path style="fill:#797781;" d="M256.001,246.747L256.001,246.747l-0.001,111.036h0.001c30.614,0,55.518-24.905,55.518-55.518
	S286.615,246.747,256.001,246.747z"/>
<circle style="fill:#EBE4DD;" cx="256.001" cy="302.265" r="21.59"/>
<path style="fill:#D8CCBC;" d="M256.001,280.675v43.181c11.924,0,21.59-9.666,21.59-21.59S267.925,280.675,256.001,280.675z"/>
<g>
	<rect x="107.952" y="437.976" style="fill:#454449;" width="49.349" height="74.024"/>
	<rect x="231.326" y="437.976" style="fill:#454449;" width="49.349" height="74.024"/>
	<rect x="354.699" y="437.976" style="fill:#454449;" width="49.349" height="74.024"/>
</g>
<path style="fill:#D8CCBC;" d="M188.145,512h-37.012c0-20.135-6.602-39.6-18.506-55.495c-11.904,15.894-18.506,35.36-18.506,55.495
	H77.109c0-36.792,15.736-71.981,43.176-96.542l12.342-11.048l12.342,11.048C172.409,440.019,188.145,475.208,188.145,512z"/>
<path style="fill:#BFA993;" d="M434.892,512H397.88c0-20.135-6.603-39.6-18.506-55.495c-11.903,15.894-18.506,35.36-18.506,55.495
	h-37.012c0-36.792,15.738-71.981,43.176-96.542l12.342-11.048l12.342,11.048C419.155,440.019,434.892,475.208,434.892,512z"/>
<path style="fill:#D8CCBC;" d="M311.519,512h-37.012c0-20.135-6.603-39.6-18.506-55.495c-11.904,15.894-18.506,35.36-18.506,55.495
	h-37.012c0-36.792,15.736-71.981,43.176-96.542l12.342-11.048l12.342,11.048C295.781,440.019,311.519,475.208,311.519,512z"/>
<path style="fill:#BFA993;" d="M268.343,415.458l-12.342-11.048v52.097c11.903,15.894,18.506,35.36,18.506,55.495h37.012
	C311.519,475.208,295.781,440.019,268.343,415.458z"/>
<g>
</g>
<g>
</g>
<g>
</g>
<g>
</g>
<g>
</g>
<g>
</g>
<g>
</g>
<g>
</g>
<g>
</g>
<g>
</g>
<g>
</g>
<g>
</g>
<g>
</g>
<g>
</g>
<g>
</g>
</svg>
